<svg xmlns="http://www.w3.org/2000/svg" version="1.1" xmlns:xlink="http://www.w3.org/1999/xlink" xmlns:svgjs="http://svgjs.dev/svgjs" width="1000" height="1000" viewBox="0 0 1000 1000"><rect width="1000" height="1000" fill="#ffffff"></rect><g transform="matrix(0.7,0,0,0.7,149.57575757575756,282.1265587044535)"><svg viewBox="0 0 396 247" data-background-color="#ffffff" preserveAspectRatio="xMidYMid meet" height="623" width="1000" xmlns="http://www.w3.org/2000/svg" xmlns:xlink="http://www.w3.org/1999/xlink"><g id="tight-bounds" transform="matrix(1,0,0,1,0.2400000000000091,-0.09999999999999432)"><svg viewBox="0 0 395.52 247.2" height="247.2" width="395.52"><g><svg viewBox="0 0 395.52 247.2" height="247.2" width="395.52"><g transform="matrix(1,0,0,1,108.10647887323944,0)"><svg viewBox="0 0 179.3070422535211 247.2" height="247.2" width="179.3070422535211"><g><svg viewBox="0 0 179.3070422535211 247.2" height="247.2" width="179.3070422535211"><g><svg viewBox="0 0 179.3070422535211 247.2" height="247.2" width="179.3070422535211"><g><svg viewBox="0 0 179.3070422535211 247.2" height="247.2" width="179.3070422535211"><g id="textblocktransform"><svg viewBox="0 0 179.3070422535211 247.2" height="247.2" width="179.3070422535211" id="textblock"><g><svg viewBox="0 0 179.3070422535211 247.2" height="247.2" width="179.3070422535211"><g transform="matrix(1,0,0,1,0,0)"><svg width="179.3070422535211" viewBox="1.9000000953674316 -35 25.75 35.5" height="247.2" data-palette-color="#bb84e8"><path d="M14.75 0.5L14.75 0.5Q12.2 0.5 9.93-0.15 7.65-0.8 5.88-2.1 4.1-3.4 3.05-5.4 2-7.4 1.9-10.1L1.9-10.1Q1.9-10.55 2.2-10.88 2.5-11.2 3-11.2L3-11.2 5.7-11.2Q6.25-11.2 6.58-10.88 6.9-10.55 7-10.05L7-10.05Q7.2-7.8 8.3-6.43 9.4-5.05 11.1-4.4 12.8-3.75 14.85-3.75L14.85-3.75Q18.65-3.75 20.65-6.25 22.65-8.75 22.65-12.9L22.65-12.9 22.65-30.65 4.9-30.65Q4.4-30.65 4.08-30.98 3.75-31.3 3.75-31.8L3.75-31.8 3.75-33.85Q3.75-34.35 4.08-34.68 4.4-35 4.9-35L4.9-35 26.45-35Q27-35 27.33-34.68 27.65-34.35 27.65-33.8L27.65-33.8 27.65-12.8Q27.65-8.75 26.1-5.75 24.55-2.75 21.7-1.13 18.85 0.5 14.75 0.5Z" opacity="1" transform="matrix(1,0,0,1,0,0)" fill="#bb84e8" class="undefined-text-0" data-fill-palette-color="primary" id="text-0"></path></svg></g></svg></g></svg></g></svg></g></svg></g></svg></g></svg></g></svg></g><defs></defs></svg><rect width="395.52" height="247.2" fill="none" stroke="none" visibility="hidden"></rect></g></svg></g></svg>